<svg xmlns="http://www.w3.org/2000/svg" version="1.1" xmlns:xlink="http://www.w3.org/1999/xlink" xmlns:svgjs="http://svgjs.dev/svgjs" width="1000" height="645" viewBox="0 0 1000 645"><g transform="matrix(1,0,0,1,0.1066666666666265,-0.17724173553716582)"><svg viewBox="0 0 375 242" data-background-color="#ffffff" preserveAspectRatio="xMidYMid meet" height="645" width="1000" xmlns="http://www.w3.org/2000/svg" xmlns:xlink="http://www.w3.org/1999/xlink"><defs></defs><g id="tight-bounds" transform="matrix(1,0,0,1,-0.03976036071776434,0.06659936523436727)"><svg viewBox="0 0 375.07952880859375 241.8668975830078" height="241.8668975830078" width="375.07952880859375"><g><svg></svg></g><g><svg viewBox="0 0 375.07952880859375 241.8668975830078" height="241.8668975830078" width="375.07952880859375"><g transform="matrix(1,0,0,1,-10.220239639282227,-5.333099365234375)"><path d="M10.22 241.867v-236.534h375.08v236.534l-16.071 0 0-4.42h11.65v-227.694h-366.238v227.694l33.535 0 0 4.42z" fill="#1b5d3f" data-fill-palette-color="tertiary"></path><path d="M67.843 236.555l-0.552 1.103c-0.341-0.179-0.709-0.332-1.103-0.457-0.395-0.126-0.776-0.188-1.144-0.189v0c-0.502 0-0.902 0.114-1.198 0.342-0.296 0.23-0.444 0.542-0.444 0.937v0c0 0.278 0.099 0.52 0.296 0.726 0.197 0.206 0.453 0.386 0.767 0.539 0.314 0.153 0.646 0.296 0.996 0.43v0c0.296 0.108 0.59 0.235 0.883 0.383 0.291 0.149 0.555 0.331 0.794 0.546 0.237 0.215 0.425 0.482 0.565 0.799 0.138 0.319 0.207 0.708 0.207 1.166v0c0 0.52-0.127 0.991-0.382 1.413-0.257 0.422-0.624 0.755-1.103 1.001-0.481 0.248-1.062 0.371-1.745 0.372v0c-0.413 0-0.814-0.048-1.203-0.143-0.391-0.093-0.759-0.219-1.103-0.377-0.346-0.156-0.659-0.328-0.937-0.517v0l0.646-1.117c0.215 0.153 0.462 0.298 0.74 0.437 0.278 0.14 0.568 0.25 0.87 0.331 0.3 0.081 0.584 0.121 0.853 0.121v0c0.296 0 0.588-0.052 0.875-0.156 0.287-0.102 0.525-0.264 0.713-0.485 0.188-0.219 0.283-0.508 0.282-0.867v0c0-0.305-0.083-0.563-0.247-0.775-0.167-0.21-0.387-0.391-0.66-0.544-0.275-0.153-0.569-0.287-0.882-0.403v0c-0.305-0.117-0.615-0.247-0.929-0.391-0.314-0.144-0.606-0.317-0.875-0.519-0.269-0.201-0.486-0.452-0.651-0.754-0.167-0.3-0.25-0.669-0.251-1.109v0c0-0.52 0.124-0.976 0.372-1.367 0.246-0.389 0.589-0.696 1.028-0.921 0.44-0.224 0.947-0.35 1.521-0.376v0c0.655 0 1.225 0.081 1.709 0.242 0.484 0.162 0.915 0.354 1.292 0.579zM70.037 245.558v-9.77h1.44v9.77zM75.608 245.558h-1.386v-10.093h0.014l5.195 7.361-0.62-0.134 5.168-7.227h0.027v10.093h-1.426v-6.85l0.094 0.74-3.607 5.101h-0.027l-3.674-5.101 0.242-0.673zM86.752 235.788h2.691c0.727 0 1.349 0.123 1.866 0.368 0.515 0.248 0.91 0.6 1.184 1.058 0.273 0.458 0.409 1.014 0.409 1.669v0c0 0.386-0.058 0.767-0.175 1.144-0.117 0.377-0.302 0.72-0.557 1.028-0.257 0.31-0.596 0.557-1.017 0.74-0.422 0.185-0.933 0.277-1.535 0.277v0h-1.426v3.486h-1.44zM88.192 240.686h1.426c0.359 0 0.659-0.061 0.902-0.183 0.242-0.12 0.433-0.275 0.573-0.463 0.138-0.188 0.237-0.384 0.296-0.586 0.057-0.201 0.086-0.382 0.087-0.544v0c0-0.179-0.029-0.371-0.087-0.574-0.059-0.201-0.156-0.389-0.29-0.565-0.135-0.174-0.319-0.318-0.552-0.43-0.233-0.111-0.525-0.167-0.875-0.167v0h-1.48zM94.867 245.558v-9.77h1.44v8.384h4.885v1.386zM103.292 245.558v-9.77h6.419v1.386h-4.979v2.786h4.427v1.386h-4.427v2.826h5.168v1.386zM113.493 245.558h-1.386v-10.093h0.013l5.195 7.361-0.619-0.134 5.168-7.227h0.027v10.093h-1.427v-6.85l0.095 0.74-3.607 5.101h-0.027l-3.674-5.101 0.242-0.673zM124.636 245.558v-9.77h6.42v1.386h-4.98v2.786h4.428v1.386h-4.428v2.826h5.168v1.386zM142.011 245.895h-0.041l-7.523-7.47 0.418 0.135 0.04 6.998h-1.454v-10.08h0.068l7.429 7.483-0.337-0.095-0.027-7.078h1.427zM144.056 237.174v-1.386h6.514v1.386h-2.57v8.384h-1.44v-8.384zM152.602 245.558v-9.77h6.42v1.386h-4.98v2.786h4.428v1.386h-4.428v2.826h5.168v1.386zM172.09 235.788h1.44v9.77h-1.44v-4.212h-4.953v4.212h-1.44v-9.77h1.44v4.185h4.953zM176.692 245.558h-1.413l4.293-10.161h0.081l4.293 10.161h-1.642l-3.122-7.913 1.036-0.687zM177.459 243.136l0.431-1.238h3.472l0.498 1.238zM185.696 235.788h2.678c0.511 0 0.985 0.07 1.421 0.209 0.434 0.138 0.807 0.337 1.117 0.598 0.309 0.26 0.551 0.58 0.727 0.961 0.174 0.382 0.261 0.825 0.261 1.327v0c0 0.386-0.058 0.767-0.175 1.144-0.117 0.377-0.305 0.718-0.565 1.023-0.26 0.305-0.601 0.549-1.023 0.732-0.422 0.185-0.947 0.277-1.575 0.277v0h-1.426v3.499h-1.44zM187.136 240.686h1.4c0.368 0 0.676-0.058 0.923-0.175 0.246-0.117 0.439-0.263 0.578-0.438 0.138-0.174 0.237-0.362 0.297-0.566 0.057-0.201 0.086-0.396 0.086-0.584v0c0-0.179-0.029-0.368-0.086-0.565-0.059-0.197-0.158-0.386-0.297-0.565-0.14-0.179-0.327-0.327-0.559-0.444-0.233-0.117-0.52-0.175-0.862-0.175v0h-1.48zM188.482 241.561l1.709-0.04 2.53 4.037h-1.669zM194.645 245.558v-9.77h1.441v9.77zM207.39 245.895h-0.04l-7.523-7.47 0.417 0.135 0.04 6.998h-1.453v-10.08h0.067l7.429 7.483-0.336-0.095-0.027-7.078h1.426zM210.566 245.558h-1.413l4.293-10.161h0.081l4.293 10.161h-1.642l-3.122-7.913 1.036-0.687zM211.334 243.136l0.43-1.238h3.472l0.498 1.238zM219.247 244.374h1.238c-0.197 0.476-0.392 0.947-0.584 1.413-0.194 0.467-0.389 0.938-0.587 1.413v0h-1.117c0.179-0.476 0.354-0.947 0.525-1.413 0.17-0.467 0.345-0.938 0.525-1.413zM226.999 245.558h-1.413l4.293-10.161h0.081l4.293 10.161h-1.642l-3.122-7.913 1.036-0.687zM227.766 243.136l0.431-1.238h3.472l0.498 1.238zM243.35 240.713v3.984c-0.135 0.117-0.323 0.233-0.565 0.35-0.242 0.117-0.513 0.22-0.813 0.309-0.301 0.09-0.609 0.164-0.923 0.224-0.314 0.057-0.61 0.086-0.888 0.086v0c-0.79 0-1.498-0.121-2.127-0.364-0.628-0.242-1.166-0.579-1.614-1.009-0.449-0.431-0.792-0.936-1.031-1.515-0.237-0.578-0.355-1.208-0.356-1.89v0c0-0.834 0.135-1.575 0.404-2.22 0.269-0.646 0.634-1.191 1.096-1.637 0.463-0.443 0.998-0.78 1.604-1.009 0.605-0.228 1.239-0.342 1.903-0.342v0c0.583 0 1.124 0.067 1.623 0.202 0.497 0.135 0.925 0.31 1.284 0.525v0l-0.471 1.318c-0.179-0.099-0.401-0.196-0.665-0.29-0.266-0.093-0.537-0.167-0.816-0.221-0.278-0.054-0.534-0.081-0.767-0.081v0c-0.574 0-1.088 0.083-1.542 0.248-0.452 0.167-0.84 0.407-1.163 0.721-0.323 0.314-0.572 0.695-0.745 1.144-0.176 0.449-0.264 0.956-0.264 1.521v0c0 0.511 0.09 0.98 0.269 1.405 0.179 0.427 0.431 0.796 0.754 1.106 0.323 0.309 0.709 0.545 1.157 0.711 0.449 0.167 0.947 0.25 1.494 0.25v0c0.314 0 0.624-0.031 0.928-0.094 0.305-0.063 0.565-0.153 0.781-0.269v0-1.777h-1.884v-1.386zM247.078 235.788v6.284c0 0.413 0.103 0.785 0.31 1.117 0.206 0.332 0.48 0.597 0.821 0.794 0.341 0.197 0.722 0.296 1.144 0.297v0c0.449 0 0.848-0.099 1.198-0.297 0.35-0.197 0.626-0.462 0.829-0.794 0.201-0.332 0.301-0.704 0.301-1.117v0-6.284h1.413v6.325c0 0.709-0.166 1.33-0.498 1.862-0.332 0.535-0.781 0.95-1.346 1.247-0.565 0.296-1.198 0.444-1.897 0.444v0 0c-0.682 0-1.305-0.148-1.871-0.444-0.565-0.296-1.011-0.711-1.338-1.247-0.328-0.533-0.493-1.154-0.492-1.862v0-6.325zM255.92 245.558h-1.413l4.293-10.161h0.081l4.293 10.161h-1.642l-3.122-7.913 1.036-0.687zM256.687 243.136l0.431-1.238h3.472l0.498 1.238zM264.601 244.374h1.238c-0.197 0.476-0.392 0.947-0.584 1.413-0.194 0.467-0.389 0.938-0.587 1.413v0h-1.117c0.179-0.476 0.354-0.947 0.525-1.413 0.17-0.467 0.345-0.938 0.525-1.413zM277.574 236.555l-0.551 1.103c-0.341-0.179-0.709-0.332-1.104-0.457-0.395-0.126-0.776-0.188-1.144-0.189v0c-0.502 0-0.902 0.114-1.198 0.342-0.296 0.23-0.444 0.542-0.444 0.937v0c0 0.278 0.099 0.52 0.296 0.726 0.197 0.206 0.453 0.386 0.767 0.539 0.314 0.153 0.646 0.296 0.996 0.43v0c0.296 0.108 0.589 0.235 0.881 0.383 0.292 0.149 0.557 0.331 0.794 0.546 0.239 0.215 0.427 0.482 0.565 0.799 0.14 0.319 0.21 0.708 0.21 1.166v0c0 0.52-0.128 0.991-0.385 1.413-0.255 0.422-0.623 0.755-1.104 1.001-0.479 0.248-1.06 0.371-1.741 0.372v0c-0.413 0-0.815-0.048-1.206-0.143-0.389-0.093-0.757-0.219-1.104-0.377-0.345-0.156-0.656-0.328-0.934-0.517v0l0.646-1.117c0.215 0.153 0.462 0.298 0.741 0.437 0.278 0.14 0.567 0.25 0.866 0.331 0.301 0.081 0.587 0.121 0.856 0.121v0c0.296 0 0.588-0.052 0.875-0.156 0.287-0.102 0.525-0.264 0.713-0.485 0.188-0.219 0.283-0.508 0.283-0.867v0c0-0.305-0.083-0.563-0.25-0.775-0.165-0.21-0.385-0.391-0.66-0.544-0.273-0.153-0.566-0.287-0.88-0.403v0c-0.305-0.117-0.615-0.247-0.929-0.391-0.314-0.144-0.606-0.317-0.874-0.519-0.269-0.201-0.487-0.452-0.655-0.754-0.165-0.3-0.248-0.669-0.247-1.109v0c0-0.52 0.123-0.976 0.369-1.367 0.248-0.389 0.591-0.696 1.031-0.921 0.44-0.224 0.947-0.35 1.52-0.376v0c0.655 0 1.225 0.081 1.709 0.242 0.484 0.162 0.915 0.354 1.292 0.579zM280.185 245.558h-1.413l4.293-10.161h0.081l4.293 10.161h-1.642l-3.122-7.913 1.036-0.687zM280.952 243.136l0.431-1.238h3.472l0.498 1.238zM289.189 245.558v-9.77h1.44v8.384h4.885v1.386zM303.279 245.558h-1.386v-10.093h0.014l5.195 7.361-0.62-0.134 5.168-7.227h0.027v10.093h-1.426v-6.85l0.094 0.74-3.607 5.101h-0.027l-3.674-5.101 0.242-0.673zM314.84 245.558h-1.413l4.293-10.161h0.081l4.293 10.161h-1.642l-3.122-7.913 1.036-0.687zM315.607 243.136l0.431-1.238h3.472l0.498 1.238zM323.843 235.788h2.679c0.511 0 0.984 0.07 1.418 0.209 0.436 0.138 0.808 0.337 1.117 0.598 0.31 0.26 0.553 0.58 0.727 0.961 0.176 0.382 0.264 0.825 0.264 1.327v0c0 0.386-0.058 0.767-0.175 1.144-0.117 0.377-0.305 0.718-0.566 1.023-0.26 0.305-0.601 0.549-1.022 0.732-0.422 0.185-0.947 0.277-1.575 0.277v0h-1.427v3.499h-1.44zM325.283 240.686h1.4c0.368 0 0.675-0.058 0.921-0.175 0.248-0.117 0.441-0.263 0.578-0.438 0.14-0.174 0.239-0.362 0.296-0.566 0.059-0.201 0.089-0.396 0.089-0.584v0c0-0.179-0.03-0.368-0.089-0.565-0.057-0.197-0.156-0.386-0.296-0.565-0.138-0.179-0.324-0.327-0.557-0.444-0.233-0.117-0.52-0.175-0.861-0.175v0h-1.481zM326.629 241.561l1.709-0.04 2.531 4.037h-1.669zM332.793 245.558v-9.77h1.44v9.77zM345.538 245.895h-0.04l-7.524-7.47 0.418 0.135 0.04 6.998h-1.453v-10.08h0.067l7.429 7.483-0.337-0.095-0.027-7.078h1.427zM348.714 245.558h-1.413l4.293-10.161h0.081l4.293 10.161h-1.642l-3.122-7.913 1.036-0.687zM349.481 243.136l0.431-1.238h3.472l0.498 1.238z" fill="#1b5d3f" data-fill-palette-color="secondary"></path></g><g transform="matrix(1,0,0,1,29.331764404296877,56.769102934617706)"><svg viewBox="0 0 316.416 128.3286917137724" height="128.3286917137724" width="316.416"><g><svg viewBox="0 0 316.416 128.3286917137724" height="128.3286917137724" width="316.416"><g transform="matrix(1,0,0,1,0,79.31227977089053)"><svg viewBox="0 0 316.416 49.01641194288187" height="49.01641194288187" width="316.416"><g><svg viewBox="0 0 316.416 49.01641194288187" height="49.01641194288187" width="316.416"><g><svg viewBox="0 0 316.416 49.01641194288187" height="49.01641194288187" width="316.416"><g transform="matrix(1,0,0,1,0,0)"><svg width="316.416" viewBox="1.75 -35.400001525878906 231.0800018310547 35.80000305175781" height="49.01641194288187" data-palette-color="#1b5d3f"><path d="M1.75 0L13.85 0 13.85-3.95 8.15-3.95 8.15-15.6 10.25-15.6Q10.95-15.6 11.33-15.63 11.7-15.65 12.4-15.65L12.4-15.65 19.75 0 27.05 0 27.05-3.95 22.35-3.95 16.75-15.95Q20.35-16.75 22.23-19.25 24.1-21.75 24.1-25.5L24.1-25.5Q24.1-28.05 22.9-29.85 21.7-31.65 19.9-32.8L19.9-32.8Q18.1-33.95 16.03-34.48 13.95-35 12.25-35L12.25-35 1.75-35 1.75-31.05 4-31.05 4-3.95 1.75-3.95 1.75 0ZM8.15-19.6L8.15-31.05 12.55-31.05Q14.1-31.05 15.48-30.6 16.85-30.15 17.85-29.4L17.85-29.4Q18.8-28.6 19.38-27.6 19.95-26.6 19.95-25.5L19.95-25.5Q19.95-24.55 19.6-23.5 19.25-22.45 18.4-21.6L18.4-21.6Q17.55-20.75 16.13-20.18 14.7-19.6 12.5-19.6L12.5-19.6 8.15-19.6ZM61.05-4.85L61.05-4.85Q63.5-7.25 64.92-10.5 66.35-13.75 66.35-17.45L66.35-17.45Q66.35-21.1 64.92-24.38 63.5-27.65 61.05-30.1L61.05-30.1Q58.6-32.55 55.32-33.98 52.05-35.4 48.4-35.4L48.4-35.4Q44.7-35.4 41.45-33.98 38.2-32.55 35.8-30.1L35.8-30.1Q33.35-27.65 31.95-24.38 30.55-21.1 30.55-17.45L30.55-17.45Q30.55-13.75 31.95-10.5 33.35-7.25 35.8-4.85L35.8-4.85Q38.2-2.4 41.45-1 44.7 0.4 48.4 0.4L48.4 0.4Q52.05 0.4 55.32-1 58.6-2.4 61.05-4.85ZM38.75-7.65L38.75-7.65Q36.85-9.5 35.77-12.03 34.7-14.55 34.7-17.45L34.7-17.45Q34.7-20.35 35.77-22.88 36.85-25.4 38.75-27.3L38.75-27.3Q40.6-29.2 43.1-30.3 45.6-31.4 48.45-31.4L48.45-31.4Q51.3-31.4 53.8-30.3 56.3-29.2 58.2-27.3L58.2-27.3Q60.05-25.4 61.12-22.88 62.2-20.35 62.2-17.45L62.2-17.45Q62.2-14.55 61.12-12.03 60.05-9.5 58.2-7.65L58.2-7.65Q56.3-5.75 53.8-4.65 51.3-3.55 48.45-3.55L48.45-3.55Q45.6-3.55 43.1-4.65 40.6-5.75 38.75-7.65ZM95.3-2.6L95.3-2.6Q97-4.05 97.97-6.25 98.94-8.45 98.94-11.3L98.94-11.3 98.94-31.05 102.8-31.05 102.8-35 90.69-35 90.69-31.05 94.8-31.05 94.8-11.45Q94.8-9.55 94.14-8.08 93.5-6.6 92.39-5.6L92.39-5.6Q91.25-4.6 89.69-4.08 88.14-3.55 86.3-3.55L86.3-3.55Q84.44-3.55 82.89-4.08 81.34-4.6 80.25-5.6L80.25-5.6Q79.09-6.6 78.47-8.08 77.84-9.55 77.84-11.45L77.84-11.45 77.84-31.05 81.94-31.05 81.94-35 69.84-35 69.84-31.05 73.69-31.05 73.69-11.3Q73.69-8.45 74.64-6.25 75.59-4.05 77.3-2.6L77.3-2.6Q79-1.1 81.3-0.35 83.59 0.4 86.3 0.4L86.3 0.4Q89 0.4 91.3-0.35 93.59-1.1 95.3-2.6ZM106.29 0L131.34 0 131.34-7.7 127.39-7.7 127.39-3.95 113.24-3.95 113.24-31.05 117.39-31.05 117.39-35 106.29-35 106.29-31.05 109.09-31.05 109.09-3.95 106.29-3.95 106.29 0ZM134.84 0L159.89 0 159.89-7.7 155.94-7.7 155.94-3.95 141.79-3.95 141.79-31.05 145.94-31.05 145.94-35 134.84-35 134.84-31.05 137.64-31.05 137.64-3.95 134.84-3.95 134.84 0ZM163.39 0L175.49 0 175.49-3.95 171.49-3.95 171.49-31.05 175.49-31.05 175.49-35 163.39-35 163.39-31.05 167.34-31.05 167.34-3.95 163.39-3.95 163.39 0ZM178.99 0L204.04 0 204.04-7.7 200.09-7.7 200.09-3.95 185.94-3.95 185.94-15.65 201.39-15.65 201.39-19.6 185.94-19.6 185.94-31.05 199.39-31.05 199.39-27.3 203.34-27.3 203.34-35 178.99-35 178.99-31.05 181.79-31.05 181.79-3.95 178.99-3.95 178.99 0ZM207.53 0L219.63 0 219.63-3.95 213.93-3.95 213.93-15.6 216.03-15.6Q216.73-15.6 217.11-15.63 217.48-15.65 218.18-15.65L218.18-15.65 225.53 0 232.83 0 232.83-3.95 228.13-3.95 222.53-15.95Q226.13-16.75 228.01-19.25 229.88-21.75 229.88-25.5L229.88-25.5Q229.88-28.05 228.68-29.85 227.48-31.65 225.68-32.8L225.68-32.8Q223.88-33.95 221.81-34.48 219.73-35 218.03-35L218.03-35 207.53-35 207.53-31.05 209.78-31.05 209.78-3.95 207.53-3.95 207.53 0ZM213.93-19.6L213.93-31.05 218.33-31.05Q219.88-31.05 221.26-30.6 222.63-30.15 223.63-29.4L223.63-29.4Q224.58-28.6 225.16-27.6 225.73-26.6 225.73-25.5L225.73-25.5Q225.73-24.55 225.38-23.5 225.03-22.45 224.18-21.6L224.18-21.6Q223.33-20.75 221.91-20.18 220.48-19.6 218.28-19.6L218.28-19.6 213.93-19.6Z" opacity="1" transform="matrix(1,0,0,1,0,0)" fill="#1b5d3f" class="undefined-text-0" data-fill-palette-color="primary" id="text-0"></path></svg></g></svg></g></svg></g></svg></g><g transform="matrix(1,0,0,1,104.48155690307199,0)"><svg viewBox="0 0 107.45288619385602 67.74068130506275" height="67.74068130506275" width="107.45288619385602"><g><svg xmlns="http://www.w3.org/2000/svg" xmlns:xlink="http://www.w3.org/1999/xlink" version="1.1" x="0" y="0" viewBox="5.000373840332031 21.631000518798828 89.9998550415039 56.7379035949707" enable-background="new 0 0 100 100" xml:space="preserve" height="67.74068130506275" width="107.45288619385602" class="icon-icon-0" data-fill-palette-color="accent" id="icon-0"><g fill="#615e3f" data-fill-palette-color="accent"><path fill="#615e3f" d="M93.365 61.721l-4-6.995L70.75 71.273c0 0 4.999-1.727 7.067 0.171 0.907 0.828 2.834 2.882 4.716 4.927 2.541 2.757 6.93 2.644 9.328-0.236l0.261-0.311C95.441 71.844 95.936 66.219 93.365 61.721M92.133 65.454c0 0.996-0.816 1.81-1.81 1.81s-1.81-0.814-1.81-1.81v-1.81c0-0.994 0.816-1.81 1.81-1.81s1.81 0.816 1.81 1.81V65.454z" data-fill-palette-color="accent"></path><path fill="#615e3f" d="M10.636 54.726l-4.001 6.995c-2.569 4.498-2.077 10.123 1.244 14.103l0.26 0.311c2.4 2.88 6.787 2.993 9.324 0.236 1.885-2.044 3.813-4.099 4.721-4.927 2.068-1.898 7.067-0.173 7.067-0.173L10.636 54.726zM13.537 65.874c0 0.782-0.643 1.422-1.424 1.422-0.78 0-1.42-0.319-1.42-0.711 0-0.39-0.642-0.711-1.422-0.711-0.782 0-1.422-0.638-1.422-1.422v-0.711c0-0.78 0.64-1.422 1.422-1.422h2.842c0.782 0 1.424 0.642 1.424 1.422V65.874zM17.673 69.59c0 0.996-0.816 1.81-1.81 1.81s-1.81-0.814-1.81-1.81v-1.81c0-0.994 0.816-1.81 1.81-1.81s1.81 0.816 1.81 1.81V69.59z" data-fill-palette-color="accent"></path><path fill="#615e3f" d="M42.594 72.572L26.948 33.463c-1.753-4.387-7.572-5.282-10.562-1.624L8.23 41.805c-2.121 2.592-1.804 6.395 0.715 8.601 3.351 2.931 6.702 5.857 10.051 8.792 5.094 4.458 10.186 8.914 15.278 13.369 1.4 1.224 2.81 2.569 4.729 2.842C40.726 75.654 43.545 74.951 42.594 72.572M17.673 44.06c0 0.994-0.816 1.81-1.81 1.81s-1.81-0.816-1.81-1.81v-0.905c0-0.994 0.816-1.81 1.81-1.81s1.81 0.816 1.81 1.81V44.06zM25.946 51.977c0 0.994-0.816 1.81-1.81 1.81-0.994 0-1.81-0.816-1.81-1.81v-0.452c0-0.994 0.816-1.81 1.81-1.81 0.994 0 1.81 0.816 1.81 1.81V51.977zM25.946 44.577c0 0.782-0.642 1.422-1.422 1.422-0.782 0-1.422-0.16-1.422-0.355s-0.643-0.355-1.422-0.355c-0.782 0-1.422-0.64-1.422-1.422v-0.711c0-0.78 0.641-1.422 1.422-1.422h2.844c0.78 0 1.422 0.643 1.422 1.422V44.577zM34.22 56.566c0 0.996-0.816 1.81-1.81 1.81-0.994 0-1.81-0.814-1.81-1.81v-1.357c0-0.994 0.816-1.81 1.81-1.81 0.994 0 1.81 0.816 1.81 1.81V56.566z" data-fill-palette-color="accent"></path><path fill="#615e3f" d="M63.97 21.631H35.896c-4.268 0-7.259 4.206-5.863 8.235l14.409 41.633c0.812 2.341 3.014 3.908 5.492 3.908 2.474 0 4.676-1.567 5.488-3.908l14.412-41.633C71.229 25.836 68.234 21.631 63.97 21.631M38.356 31.651c0 0.992-0.816 1.81-1.81 1.81s-1.81-0.818-1.81-1.81v-0.907c0-0.994 0.816-1.81 1.81-1.81s1.81 0.816 1.81 1.81V31.651zM45.206 38.953h-2.844c-0.78 0-1.42-0.64-1.42-1.422v-2.844c0-0.782 0.64-1.422 1.42-1.422h2.844c0.782 0 1.424 0.64 1.424 1.422v2.844C46.629 38.313 45.987 38.953 45.206 38.953M50.766 56.114c0 0.996-0.816 1.81-1.81 1.81s-1.81-0.814-1.81-1.81v-0.452c0-0.994 0.816-1.81 1.81-1.81s1.81 0.816 1.81 1.81V56.114zM50.766 44.577c0 0.782-0.642 1.422-1.424 1.422-0.78 0-1.42-0.158-1.42-0.355 0-0.196-0.643-0.355-1.424-0.355-0.779 0-1.42-0.638-1.42-1.422v-0.711c0-0.782 0.641-1.42 1.42-1.42h2.844c0.782 0 1.424 0.639 1.424 1.42V44.577zM50.766 28.418c0 0.996-0.816 1.81-1.81 1.81s-1.81-0.814-1.81-1.81v-2.713c0-0.996 0.816-1.81 1.81-1.81s1.81 0.814 1.81 1.81V28.418zM59.04 47.841c0 0.996-0.816 1.81-1.81 1.81-0.994 0-1.81-0.814-1.81-1.81v-0.453c0-0.994 0.816-1.81 1.81-1.81 0.994 0 1.81 0.816 1.81 1.81V47.841zM59.298 28.159c-0.426 0-0.775 0.263-0.775 0.582 0 0.319-0.701 0.582-1.551 0.582-0.853 0-1.551-0.699-1.551-1.551v-1.164c0-0.853 0.35-1.551 0.775-1.551h1.551 1.551c0.426 0 0.776 0.699 0.776 1.551C60.074 27.462 59.724 28.159 59.298 28.159M63.176 40.634c0 0.994-0.816 1.81-1.81 1.81-0.994 0-1.81-0.816-1.81-1.81v-1.81c0-0.994 0.816-1.81 1.81-1.81 0.994 0 1.81 0.816 1.81 1.81V40.634zM67.313 34.623c0 0.784-0.643 1.422-1.422 1.422-0.782 0-1.422-0.241-1.422-0.534 0-0.292-0.642-0.533-1.424-0.533-0.78 0-1.42-0.64-1.42-1.422v-3.199c0-0.78 0.64-1.422 1.42-1.422h2.846c0.78 0 1.422 0.642 1.422 1.422V34.623z" data-fill-palette-color="accent"></path><path fill="#615e3f" d="M91.769 41.805l-8.154-9.966c-2.991-3.658-8.811-2.763-10.563 1.624 0 0-15.448 38.624-15.642 39.104-0.622 1.551 0.246 2.509 1.771 2.731 4.27 0.626 7.456-3.529 10.326-6.04 5.548-4.855 11.101-9.713 16.649-14.571l4.898-4.284C93.571 48.2 93.89 44.397 91.769 41.805M67.313 64.743c0 0.996-0.816 1.81-1.81 1.81s-1.81-0.814-1.81-1.81v-0.905c0-0.994 0.816-1.81 1.81-1.81s1.81 0.816 1.81 1.81V64.743zM71.449 56.114c0 0.994-0.816 1.81-1.81 1.81s-1.81-0.816-1.81-1.81v-0.452c0-0.994 0.816-1.81 1.81-1.81s1.81 0.816 1.81 1.81V56.114zM75.586 47.841c0 0.994-0.816 1.81-1.81 1.81s-1.81-0.816-1.81-1.81v-0.453c0-0.994 0.816-1.81 1.81-1.81s1.81 0.816 1.81 1.81V47.841zM79.723 40.44c0 0.784-0.642 1.422-1.424 1.422-0.78 0-1.42-0.16-1.42-0.355 0-0.194-0.643-0.355-1.422-0.355-0.782 0-1.422-0.64-1.422-1.422V39.02c0-0.782 0.641-1.424 1.422-1.424h2.842c0.782 0 1.424 0.643 1.424 1.424V40.44zM83.859 48.455c0 0.854-0.701 1.551-1.551 1.551-0.853 0-1.551-0.261-1.551-0.582 0-0.319-0.35-0.582-0.775-0.582-0.426 0-0.776-0.699-0.776-1.549 0-0.854 0.35-1.551 0.776-1.551h1.551 1.551c0.426 0 0.776 0.697 0.776 1.551V48.455z" data-fill-palette-color="accent"></path></g></svg></g></svg></g><g></g></svg></g></svg></g></svg></g></svg><rect width="375.07952880859375" height="241.8668975830078" fill="none" stroke="none" visibility="hidden"></rect></g></svg></g></svg>